<?xml version="1.0" standalone="no"?>
<!DOCTYPE svg PUBLIC "-//W3C//DTD SVG 20010904//EN"
 "http://www.w3.org/TR/2001/REC-SVG-20010904/DTD/svg10.dtd">
<svg version="1.0" xmlns="http://www.w3.org/2000/svg"
 width="16.000000pt" height="16.000000pt" viewBox="0 0 16.000000 16.000000"
 preserveAspectRatio="xMidYMid meet">

<g transform="translate(0.000000,16.000000) scale(0.100000,-0.100000)"
fill="#000000" stroke="none">
<path d="M4 147 c-3 -8 -4 -43 -2 -78 l3 -64 75 0 75 0 0 75 0 75 -73 3 c-55
2 -74 -1 -78 -11z m131 -66 c0 -53 -2 -58 -21 -57 -17 1 -20 7 -19 46 1 49 9
70 28 70 8 0 12 -20 12 -59z m-61 15 c14 -26 16 -39 8 -53 -10 -16 -12 -15
-27 17 l-16 35 5 -37 c3 -26 1 -38 -7 -38 -8 0 -12 19 -12 55 0 66 20 74 49
21z"/>
</g>
</svg>
